<svg width="127" height="908" viewBox="0 0 127 908" fill="none" xmlns="http://www.w3.org/2000/svg">
<rect x="61.6992" width="6" height="908" fill="#FF0000"/>
<path d="M33.9141 12L0.00101852 27L33.9141 42V12Z" fill="white"/>
<path d="M52.1747 12L40.4355 17.1923V21.1304H46.9573V32.8696H40.4355V36.8077L52.1747 42V12Z" fill="#EC664B"/>
<rect width="16.9565" height="6.52174" transform="matrix(-1 0 0 1 58.6963 23.7393)" fill="white"/>
<path d="M33.9141 322L0.00101852 337L33.9141 352V322Z" fill="white"/>
<path d="M52.1747 322L40.4355 327.192V331.13H46.9573V342.87H40.4355V346.808L52.1747 352V322Z" fill="#EC664B"/>
<rect width="16.9565" height="6.52174" transform="matrix(-1 0 0 1 58.6963 333.739)" fill="white"/>
<path d="M33.9141 104L0.00101852 119L33.9141 134V104Z" fill="white"/>
<path d="M52.1747 104L40.4355 109.192V113.13H46.9573V124.87H40.4355V128.808L52.1747 134V104Z" fill="#18FFCB"/>
<rect width="16.9565" height="6.52174" transform="matrix(-1 0 0 1 58.6963 115.739)" fill="white"/>
<path d="M33.9141 414L0.00101852 429L33.9141 444V414Z" fill="white"/>
<path d="M52.1747 414L40.4355 419.192V423.13H46.9573V434.87H40.4355V438.808L52.1747 444V414Z" fill="#18FFCB"/>
<rect width="16.9565" height="6.52174" transform="matrix(-1 0 0 1 58.6963 425.739)" fill="white"/>
<path d="M33.9141 595L0.00101852 610L33.9141 625V595Z" fill="white"/>
<path d="M52.1747 595L40.4355 600.192V604.13H46.9573V615.87H40.4355V619.808L52.1747 625V595Z" fill="#18FFCB"/>
<rect width="16.9565" height="6.52174" transform="matrix(-1 0 0 1 58.6963 606.739)" fill="white"/>
<path d="M33.9131 779L4.19617e-05 794L33.9131 809V779Z" fill="white"/>
<path d="M52.1737 779L40.4346 784.192V788.13H46.9563V799.87H40.4346V803.808L52.1737 809V779Z" fill="#18FFCB"/>
<rect width="16.9565" height="6.52174" transform="matrix(-1 0 0 1 58.6953 790.739)" fill="white"/>
<path d="M33.9141 234L0.00101852 249L33.9141 264V234Z" fill="white"/>
<path d="M52.1747 234L40.4355 239.192V243.13H46.9573V254.87H40.4355V258.808L52.1747 264V234Z" fill="#18FFCB"/>
<rect width="16.9565" height="6.52174" transform="matrix(-1 0 0 1 58.6963 245.739)" fill="white"/>
<path d="M33.9141 468L0.00101852 483L33.9141 498V468Z" fill="white"/>
<path d="M52.1747 468L40.4355 473.192V477.13H46.9573V488.87H40.4355V492.808L52.1747 498V468Z" fill="#18FFCB"/>
<rect width="16.9565" height="6.52174" transform="matrix(-1 0 0 1 58.6963 479.739)" fill="white"/>
<path d="M33.9141 650L0.00101852 665L33.9141 680V650Z" fill="white"/>
<path d="M52.1747 650L40.4355 655.192V659.13H46.9573V670.87H40.4355V674.808L52.1747 680V650Z" fill="#18FFCB"/>
<rect width="16.9565" height="6.52174" transform="matrix(-1 0 0 1 58.6963 661.739)" fill="white"/>
<path d="M33.9141 836L0.00101852 851L33.9141 866V836Z" fill="white"/>
<path d="M52.1747 836L40.4355 841.192V845.13H46.9573V856.87H40.4355V860.808L52.1747 866V836Z" fill="#18FFCB"/>
<rect width="16.9565" height="6.52174" transform="matrix(-1 0 0 1 58.6963 847.739)" fill="white"/>
<path d="M92.7822 51L126.695 66L92.7822 81V51Z" fill="white"/>
<path d="M74.5216 51L86.2607 56.1923V60.1304H79.739V71.8696H86.2607V75.8077L74.5216 81V51Z" fill="#EC664B"/>
<rect x="68" y="62.7393" width="16.9565" height="6.52174" fill="white"/>
<path d="M92.7832 289L126.696 304L92.7832 319V289Z" fill="white"/>
<path d="M74.5226 289L86.2617 294.192V298.13H79.74V309.87H86.2617V313.808L74.5226 319V289Z" fill="#EC664B"/>
<rect x="68.001" y="300.739" width="16.9565" height="6.52174" fill="white"/>
<path d="M92.7832 143L126.696 158L92.7832 173V143Z" fill="white"/>
<path d="M74.5226 143L86.2617 148.192V152.13H79.74V163.87H86.2617V167.808L74.5226 173V143Z" fill="#18FFCB"/>
<rect x="68.001" y="154.739" width="16.9565" height="6.52174" fill="white"/>
<path d="M92.7832 198L126.696 213L92.7832 228V198Z" fill="white"/>
<path d="M74.5226 198L86.2617 203.192V207.13H79.74V218.87H86.2617V222.808L74.5226 228V198Z" fill="#18FFCB"/>
<rect x="68.001" y="209.739" width="16.9565" height="6.52174" fill="white"/>
<path d="M92.7832 380L126.696 395L92.7832 410V380Z" fill="white"/>
<path d="M74.5226 380L86.2617 385.192V389.13H79.74V400.87H86.2617V404.808L74.5226 410V380Z" fill="#18FFCB"/>
<rect x="68.001" y="391.739" width="16.9565" height="6.52174" fill="white"/>
<path d="M92.7832 561L126.696 576L92.7832 591V561Z" fill="white"/>
<path d="M74.5226 561L86.2617 566.192V570.13H79.74V581.87H86.2617V585.808L74.5226 591V561Z" fill="#18FFCB"/>
<rect x="68.001" y="572.739" width="16.9565" height="6.52174" fill="white"/>
<path d="M92.7832 745L126.696 760L92.7832 775V745Z" fill="white"/>
<path d="M74.5226 745L86.2617 750.192V754.13H79.74V765.87H86.2617V769.808L74.5226 775V745Z" fill="#18FFCB"/>
<rect x="68.001" y="756.739" width="16.9565" height="6.52174" fill="white"/>
<path d="M92.7822 506L126.695 521L92.7822 536V506Z" fill="white"/>
<path d="M74.5216 506L86.2607 511.192V515.13H79.739V526.87H86.2607V530.808L74.5216 536V506Z" fill="#18FFCB"/>
<rect x="68" y="517.739" width="16.9565" height="6.52174" fill="white"/>
<path d="M92.7832 688L126.696 703L92.7832 718V688Z" fill="white"/>
<path d="M74.5226 688L86.2617 693.192V697.13H79.74V708.87H86.2617V712.808L74.5226 718V688Z" fill="#18FFCB"/>
<rect x="68.001" y="699.739" width="16.9565" height="6.52174" fill="white"/>
<path d="M92.7832 874L126.696 889L92.7832 904V874Z" fill="white"/>
<path d="M74.5226 874L86.2617 879.192V883.13H79.74V894.87H86.2617V898.808L74.5226 904V874Z" fill="#18FFCB"/>
<rect x="68.001" y="885.739" width="16.9565" height="6.52174" fill="white"/>
</svg>
