<svg width="120" height="908" viewBox="0 0 120 908" fill="none" xmlns="http://www.w3.org/2000/svg">
<rect opacity="0.3" x="58.3018" width="6" height="908" fill="#18FFCB"/>
<rect opacity="0.6" x="58.3018" width="6" height="86" fill="#E31D1D"/>
<rect opacity="0.6" x="58.3018" y="270" width="6" height="88" fill="#E31D1D"/>
<g opacity="1">
<path d="M54.0797 16L44.6797 20.1538V23.3043H49.9019V32.6957H44.6797V35.8462L54.0797 40V16Z" fill="#E31D1D"/>
<rect width="13.5778" height="5.21739" transform="matrix(-1 0 0 1 59.3018 25.3916)" fill="white"/>
</g>
<g opacity="1">
<path d="M54.0797 320L44.6797 324.158V327.311H49.9019V336.711H44.6797V339.865L54.0797 344.022V320Z" fill="#E31D1D"/>
<rect width="13.5778" height="5.22222" transform="matrix(-1 0 0 1 59.3018 329.4)" fill="white"/>
</g>
<g opacity="1">
<path d="M54.0797 108L44.6797 112.154V115.304H49.9019V124.696H44.6797V127.846L54.0797 132V108Z" fill="#18FFCB"/>
<rect width="13.5778" height="5.21739" transform="matrix(-1 0 0 1 59.3018 117.392)" fill="white"/>
</g>
<g opacity="1">
<path d="M54.0797 412L44.6797 416.158V419.311H49.9019V428.711H44.6797V431.865L54.0797 436.022V412Z" fill="#18FFCB"/>
<rect width="13.5778" height="5.22222" transform="matrix(-1 0 0 1 59.3018 421.4)" fill="white"/>
</g>
<g opacity="1">
<path d="M54.0797 596L44.6797 600.158V603.311H49.9019V612.711H44.6797V615.865L54.0797 620.022V596Z" fill="#18FFCB"/>
<rect width="13.5778" height="5.22222" transform="matrix(-1 0 0 1 59.3018 605.4)" fill="white"/>
</g>
<g opacity="1">
<path d="M54.0797 780L44.6797 784.158V787.311H49.9019V796.711H44.6797V799.865L54.0797 804.022V780Z" fill="#18FFCB"/>
<rect width="13.5778" height="5.22222" transform="matrix(-1 0 0 1 59.3018 789.4)" fill="white"/>
</g>
<g opacity="1">
<path d="M54.0797 232L44.6797 236.158V239.311H49.9019V248.711H44.6797V251.865L54.0797 256.022V232Z" fill="#18FFCB"/>
<rect width="13.5778" height="5.22222" transform="matrix(-1 0 0 1 59.3018 241.4)" fill="white"/>
</g>
<g opacity="1">
<path d="M54.0797 655L44.6797 659.158V662.311H49.9019V671.711H44.6797V674.865L54.0797 679.022V655Z" fill="#18FFCB"/>
<rect width="13.5778" height="5.22222" transform="matrix(-1 0 0 1 59.3018 664.4)" fill="white"/>
</g>
<g opacity="1">
<path d="M54.0797 839L44.6797 843.158V846.311H49.9019V855.711H44.6797V858.865L54.0797 863.022V839Z" fill="#18FFCB"/>
<rect width="13.5778" height="5.22222" transform="matrix(-1 0 0 1 59.3018 848.4)" fill="white"/>
</g>
<g opacity="1">
<path d="M67.5238 55L76.9238 59.1538V62.3043H71.7016V71.6957H76.9238V74.8462L67.5238 79V55Z" fill="#E31D1D"/>
<rect x="62.3018" y="64.3916" width="13.5778" height="5.21739" fill="white"/>
</g>
<g opacity="0.4">
<path d="M67.5238 287L76.9238 291.158V294.311H71.7016V303.711H76.9238V306.865L67.5238 311.022V287Z" fill="#E31D1D"/>
<rect x="62.3018" y="296.4" width="13.5778" height="5.22222" fill="white"/>
</g>
<g opacity="0.4">
<path d="M67.5238 141L76.9238 145.158V148.311H71.7016V157.711H76.9238V160.865L67.5238 165.022V141Z" fill="#18FFCB"/>
<rect x="62.3018" y="150.4" width="13.5778" height="5.22222" fill="white"/>
</g>
<g opacity="0.4">
<path d="M67.5238 196L76.9238 200.158V203.311H71.7016V212.711H76.9238V215.865L67.5238 220.022V196Z" fill="#18FFCB"/>
<rect x="62.3018" y="205.4" width="13.5778" height="5.22222" fill="white"/>
</g>
<g opacity="0.4">
<path d="M67.5238 378L76.9238 382.158V385.311H71.7016V394.711H76.9238V397.865L67.5238 402.022V378Z" fill="#18FFCB"/>
<rect x="62.3018" y="387.4" width="13.5778" height="5.22222" fill="white"/>
</g>
<g opacity="0.4">
<path d="M67.5238 562L76.9238 566.158V569.311H71.7016V578.711H76.9238V581.865L67.5238 586.022V562Z" fill="#18FFCB"/>
<rect x="62.3018" y="571.4" width="13.5778" height="5.22222" fill="white"/>
</g>
<g opacity="0.4">
<path d="M67.5238 746L76.9238 750.158V753.311H71.7016V762.711H76.9238V765.865L67.5238 770.022V746Z" fill="#18FFCB"/>
<rect x="62.3018" y="755.4" width="13.5778" height="5.22222" fill="white"/>
</g>
<g opacity="0.4">
<path d="M67.5238 509L76.9238 513.158V516.311H71.7016V525.711H76.9238V528.865L67.5238 533.022V509Z" fill="#18FFCB"/>
<rect x="62.3018" y="518.4" width="13.5778" height="5.22222" fill="white"/>
</g>
<g opacity="0.4">
<path d="M67.5238 693L76.9238 697.158V700.311H71.7016V709.711H76.9238V712.865L67.5238 717.022V693Z" fill="#18FFCB"/>
<rect x="62.3018" y="702.4" width="13.5778" height="5.22222" fill="white"/>
</g>
<g opacity="0.4">
<path d="M67.5238 877L76.9238 881.158V884.311H71.7016V893.711H76.9238V896.865L67.5238 901.022V877Z" fill="#18FFCB"/>
<rect x="62.3018" y="886.4" width="13.5778" height="5.22222" fill="white"/>
</g>
<g opacity="0.4">
<path d="M53.3619 475L42.4805 479.158V482.311H48.5257V491.711H42.4805V494.865L53.3619 499.022V475Z" fill="#18FFCB"/>
<rect width="15.7176" height="5.22222" transform="matrix(-1 0 0 1 59.4072 484.4)" fill="white"/>
</g>
</svg>
