<svg width="120" height="908" viewBox="0 0 120 908" fill="none" xmlns="http://www.w3.org/2000/svg">
<g clip-path="url(#clip0_359_3227)">
<rect opacity="0.3" x="58" y="86" width="6" height="50" fill="#18FFCB"/>
<rect opacity="0.3" x="58" y="136" width="6" height="42" fill="#18FFCB"/>
<rect opacity="0.3" x="58" y="178" width="6" height="47" fill="#18FFCB"/>
<rect opacity="0.3" x="58" y="225" width="6" height="45" fill="#18FFCB"/>
<rect opacity="0.3" x="58" y="358" width="6" height="48" fill="#18FFCB"/>
<rect opacity="0.3" x="58" y="406" width="6" height="48" fill="#18FFCB"/>
<rect opacity="0.3" x="58" y="454" width="6" height="48" fill="#18FFCB"/>
<rect opacity="0.3" x="58" y="502" width="6" height="48" fill="#18FFCB"/>
<rect opacity="0.3" x="58" y="550" width="6" height="48" fill="#18FFCB"/>
<rect opacity="0.3" x="58" y="598" width="6" height="44" fill="#18FFCB"/>
<rect opacity="0.3" x="58" y="642" width="6" height="44" fill="#18FFCB"/>
<rect opacity="0.3" x="58" y="686" width="6" height="44" fill="#18FFCB"/>
<rect opacity="0.3" x="58" y="730" width="6" height="44" fill="#18FFCB"/>
<rect opacity="0.3" x="58" y="774" width="6" height="44" fill="#18FFCB"/>
<rect opacity="0.3" x="58" y="818" width="6" height="50" fill="#18FFCB"/>
<rect opacity="0.3" x="58" y="868" width="6" height="50" fill="#18FFCB"/>
<rect opacity="0.6" x="58" width="6" height="43" fill="#E31D1D"/>
<rect opacity="0.6" x="58" y="43" width="6" height="43" fill="#E31D1D"/>
<rect opacity="0.6" x="58" y="270" width="6" height="44" fill="#E31D1D"/>
<rect opacity="0.6" x="58" y="314" width="6" height="44" fill="#E31D1D"/>
<g opacity="0.4">
<path d="M53.6627 16L44.2627 20.1538V23.3043H49.4849V32.6957H44.2627V35.8462L53.6627 40V16Z" fill="#E31D1D"/>
<rect width="13.5778" height="5.21739" transform="matrix(-1 0 0 1 58.8848 25.3916)" fill="white"/>
</g>
<g opacity="0.4">
<path d="M53.6627 320L44.2627 324.158V327.311H49.4849V336.711H44.2627V339.865L53.6627 344.022V320Z" fill="#E31D1D"/>
<rect width="13.5778" height="5.22222" transform="matrix(-1 0 0 1 58.8848 329.4)" fill="white"/>
</g>
<g opacity="0.4">
<path d="M53.6627 108L44.2627 112.154V115.304H49.4849V124.696H44.2627V127.846L53.6627 132V108Z" fill="#18FFCB"/>
<rect width="13.5778" height="5.21739" transform="matrix(-1 0 0 1 58.8848 117.392)" fill="white"/>
</g>
<g opacity="0.4">
<path d="M53.6627 412L44.2627 416.158V419.311H49.4849V428.711H44.2627V431.865L53.6627 436.022V412Z" fill="#18FFCB"/>
<rect width="13.5778" height="5.22222" transform="matrix(-1 0 0 1 58.8848 421.4)" fill="white"/>
</g>
<g opacity="0.4">
<path d="M53.6627 596L44.2627 600.158V603.311H49.4849V612.711H44.2627V615.865L53.6627 620.022V596Z" fill="#18FFCB"/>
<rect width="13.5778" height="5.22222" transform="matrix(-1 0 0 1 58.8848 605.4)" fill="white"/>
</g>
<g opacity="0.4">
<path d="M53.6627 780L44.2627 784.158V787.311H49.4849V796.711H44.2627V799.865L53.6627 804.022V780Z" fill="#18FFCB"/>
<rect width="13.5778" height="5.22222" transform="matrix(-1 0 0 1 58.8848 789.4)" fill="white"/>
</g>
<g opacity="0.4">
<path d="M53.6627 232L44.2627 236.158V239.311H49.4849V248.711H44.2627V251.865L53.6627 256.022V232Z" fill="#18FFCB"/>
<rect width="13.5778" height="5.22222" transform="matrix(-1 0 0 1 58.8848 241.4)" fill="white"/>
</g>
<g opacity="0.4">
<path d="M53.6627 655L44.2627 659.158V662.311H49.4849V671.711H44.2627V674.865L53.6627 679.022V655Z" fill="#18FFCB"/>
<rect width="13.5778" height="5.22222" transform="matrix(-1 0 0 1 58.8848 664.4)" fill="white"/>
</g>
<g opacity="0.4">
<path d="M53.6627 839L44.2627 843.158V846.311H49.4849V855.711H44.2627V858.865L53.6627 863.022V839Z" fill="#18FFCB"/>
<rect width="13.5778" height="5.22222" transform="matrix(-1 0 0 1 58.8848 848.4)" fill="white"/>
</g>
<g opacity="0.4">
<path d="M67.1068 55L76.5068 59.1538V62.3043H71.2846V71.6957H76.5068V74.8462L67.1068 79V55Z" fill="#E31D1D"/>
<rect x="61.8848" y="64.3916" width="13.5778" height="5.21739" fill="white"/>
</g>
<g opacity="0.4">
<path d="M67.1068 287L76.5068 291.158V294.311H71.2846V303.711H76.5068V306.865L67.1068 311.022V287Z" fill="#E31D1D"/>
<rect x="61.8848" y="296.4" width="13.5778" height="5.22222" fill="white"/>
</g>
<g opacity="0.4">
<path d="M67.1068 141L76.5068 145.158V148.311H71.2846V157.711H76.5068V160.865L67.1068 165.022V141Z" fill="#18FFCB"/>
<rect x="61.8848" y="150.4" width="13.5778" height="5.22222" fill="white"/>
</g>
<g opacity="0.4">
<path d="M67.1068 196L76.5068 200.158V203.311H71.2846V212.711H76.5068V215.865L67.1068 220.022V196Z" fill="#18FFCB"/>
<rect x="61.8848" y="205.4" width="13.5778" height="5.22222" fill="white"/>
</g>
<g opacity="0.4">
<path d="M67.1068 378L76.5068 382.158V385.311H71.2846V394.711H76.5068V397.865L67.1068 402.022V378Z" fill="#18FFCB"/>
<rect x="61.8848" y="387.4" width="13.5778" height="5.22222" fill="white"/>
</g>
<g opacity="0.4">
<path d="M67.1068 562L76.5068 566.158V569.311H71.2846V578.711H76.5068V581.865L67.1068 586.022V562Z" fill="#18FFCB"/>
<rect x="61.8848" y="571.4" width="13.5778" height="5.22222" fill="white"/>
</g>
<g opacity="0.4">
<path d="M67.1068 746L76.5068 750.158V753.311H71.2846V762.711H76.5068V765.865L67.1068 770.022V746Z" fill="#18FFCB"/>
<rect x="61.8848" y="755.4" width="13.5778" height="5.22222" fill="white"/>
</g>
<g opacity="0.4">
<path d="M67.1068 509L76.5068 513.158V516.311H71.2846V525.711H76.5068V528.865L67.1068 533.022V509Z" fill="#18FFCB"/>
<rect x="61.8848" y="518.4" width="13.5778" height="5.22222" fill="white"/>
</g>
<g opacity="0.4">
<path d="M67.1068 693L76.5068 697.158V700.311H71.2846V709.711H76.5068V712.865L67.1068 717.022V693Z" fill="#18FFCB"/>
<rect x="61.8848" y="702.4" width="13.5778" height="5.22222" fill="white"/>
</g>
<g opacity="0.4">
<path d="M67.1068 877L76.5068 881.158V884.311H71.2846V893.711H76.5068V896.865L67.1068 901.022V877Z" fill="#18FFCB"/>
<rect x="61.8848" y="886.4" width="13.5778" height="5.22222" fill="white"/>
</g>
</g>
<g opacity="0.4">
<path d="M52.9449 475L42.0635 479.158V482.311H48.1087V491.711H42.0635V494.865L52.9449 499.022V475Z" fill="#18FFCB"/>
<rect width="15.7176" height="5.22222" transform="matrix(-1 0 0 1 58.9902 484.4)" fill="white"/>
</g>
<defs>
<clipPath id="clip0_359_3227">
<rect width="119.232" height="908" fill="white"/>
</clipPath>
</defs>
</svg>
