<svg width="104" height="908" viewBox="0 0 104 908" fill="none" xmlns="http://www.w3.org/2000/svg">
<rect opacity="0.3" x="47" width="6" height="908" fill="#18FFCB"/>
<rect opacity="0.6" x="47" width="6" height="86" fill="#E31D1D"/>
<rect opacity="0.6" x="47" y="270" width="6" height="88" fill="#E31D1D"/>
<g opacity="0.4">
<path d="M42.7779 16L33.3779 20.1538V23.3043H38.6002V32.6957H33.3779V35.8462L42.7779 40V16Z" fill="#E31D1D"/>
<rect width="13.5778" height="5.21739" transform="matrix(-1 0 0 1 48 25.3916)" fill="white"/>
</g>
<g opacity='0.4'>
<path d="M42.7779 320L33.3779 324.158V327.311H38.6002V336.711H33.3779V339.865L42.7779 344.022V320Z" fill="#E31D1D"/>
<rect width="13.5778" height="5.22222" transform="matrix(-1 0 0 1 48 329.4)" fill="white"/>
</g>
<g opacity="0.4">
<path d="M42.7779 108L33.3779 112.154V115.304H38.6002V124.696H33.3779V127.846L42.7779 132V108Z" fill="#18FFCB"/>
<rect width="13.5778" height="5.21739" transform="matrix(-1 0 0 1 48 117.392)" fill="white"/>
</g>
<g opacity="0.4">
<path d="M42.7779 412L33.3779 416.158V419.311H38.6002V428.711H33.3779V431.865L42.7779 436.022V412Z" fill="#18FFCB"/>
<rect width="13.5778" height="5.22222" transform="matrix(-1 0 0 1 48 421.4)" fill="white"/>
</g>
<g opacity="0.4">
<path d="M42.7779 596L33.3779 600.158V603.311H38.6002V612.711H33.3779V615.865L42.7779 620.022V596Z" fill="#18FFCB"/>
<rect width="13.5778" height="5.22222" transform="matrix(-1 0 0 1 48 605.4)" fill="white"/>
</g>
<g opacity="0.4">
<path d="M42.7779 780L33.3779 784.158V787.311H38.6002V796.711H33.3779V799.865L42.7779 804.022V780Z" fill="#18FFCB"/>
<rect width="13.5778" height="5.22222" transform="matrix(-1 0 0 1 48 789.4)" fill="white"/>
</g>
<g opacity="0.4">
<path d="M42.7779 232L33.3779 236.158V239.311H38.6002V248.711H33.3779V251.865L42.7779 256.022V232Z" fill="#18FFCB"/>
<rect width="13.5778" height="5.22222" transform="matrix(-1 0 0 1 48 241.4)" fill="white"/>
</g>
<g opacity="0.4">
<path d="M42.7779 655L33.3779 659.158V662.311H38.6002V671.711H33.3779V674.865L42.7779 679.022V655Z" fill="#18FFCB"/>
<rect width="13.5778" height="5.22222" transform="matrix(-1 0 0 1 48 664.4)" fill="white"/>
</g>
<g opacity="0.4">
<path d="M42.7779 839L33.3779 843.158V846.311H38.6002V855.711H33.3779V858.865L42.7779 863.022V839Z" fill="#18FFCB"/>
<rect width="13.5778" height="5.22222" transform="matrix(-1 0 0 1 48 848.4)" fill="white"/>
</g>
<g opacity="0.4">
<path d="M56.2221 55L65.6221 59.1538V62.3043H60.3998V71.6957H65.6221V74.8462L56.2221 79V55Z" fill="#E31D1D"/>
<rect x="51" y="64.3916" width="13.5778" height="5.21739" fill="white"/>
</g>
<g opacity="0.4">
<path d="M56.2221 287L65.6221 291.158V294.311H60.3998V303.711H65.6221V306.865L56.2221 311.022V287Z" fill="#E31D1D"/>
<rect x="51" y="296.4" width="13.5778" height="5.22222" fill="white"/>
</g>
<g opacity="0.4">
<path d="M56.2221 141L65.6221 145.158V148.311H60.3998V157.711H65.6221V160.865L56.2221 165.022V141Z" fill="#18FFCB"/>
<rect x="51" y="150.4" width="13.5778" height="5.22222" fill="white"/>
</g>
<g opacity="0.4">
<path d="M56.2221 196L65.6221 200.158V203.311H60.3998V212.711H65.6221V215.865L56.2221 220.022V196Z" fill="#18FFCB"/>
<rect x="51" y="205.4" width="13.5778" height="5.22222" fill="white"/>
</g>
<g opacity="0.4">
<path d="M56.2221 378L65.6221 382.158V385.311H60.3998V394.711H65.6221V397.865L56.2221 402.022V378Z" fill="#18FFCB"/>
<rect x="51" y="387.4" width="13.5778" height="5.22222" fill="white"/>
</g>
<g opacity="0.4">
<path d="M56.2221 562L65.6221 566.158V569.311H60.3998V578.711H65.6221V581.865L56.2221 586.022V562Z" fill="#18FFCB"/>
<rect x="51" y="571.4" width="13.5778" height="5.22222" fill="white"/>
</g>
<g opacity="0.4">
<path d="M56.2221 746L65.6221 750.158V753.311H60.3998V762.711H65.6221V765.865L56.2221 770.022V746Z" fill="#18FFCB"/>
<rect x="51" y="755.4" width="13.5778" height="5.22222" fill="white"/>
</g>
<g opacity="0.4">
<path d="M56.2221 509L65.6221 513.158V516.311H60.3998V525.711H65.6221V528.865L56.2221 533.022V509Z" fill="#18FFCB"/>
<rect x="51" y="518.4" width="13.5778" height="5.22222" fill="white"/>
</g>
<g opacity="0.4">
<path d="M56.2221 693L65.6221 697.158V700.311H60.3998V709.711H65.6221V712.865L56.2221 717.022V693Z" fill="#18FFCB"/>
<rect x="51" y="702.4" width="13.5778" height="5.22222" fill="white"/>
</g>
<g opacity="0.4">
<path d="M56.2221 877L65.6221 881.158V884.311H60.3998V893.711H65.6221V896.865L56.2221 901.022V877Z" fill="#18FFCB"/>
<rect x="51" y="886.4" width="13.5778" height="5.22222" fill="white"/>
</g>
<g opacity="0.4">
<path d="M41.7779 474L32.3779 478.158V481.311H37.6002V490.711H32.3779V493.865L41.7779 498.022V474Z" fill="#18FFCB"/>
<rect width="13.5778" height="5.22222" transform="matrix(-1 0 0 1 47 483.4)" fill="white"/>
</g>
</svg>
