<svg width="121" height="908" viewBox="0 0 121 908" fill="none" xmlns="http://www.w3.org/2000/svg">
<path d="M33.9141 12L0.00101781 27L33.9141 42V12Z" fill="white"/>
<path d="M52.1747 12L40.4355 17.1923V21.1304H46.9573V32.8696H40.4355V36.8077L52.1747 42V12Z" fill="#EC664B"/>
<rect width="16.9565" height="6.52174" transform="matrix(-1 0 0 1 58.6963 23.7393)" fill="white"/>
<path d="M33.9141 322L0.00101781 337L33.9141 352V322Z" fill="white"/>
<path d="M52.1747 322L40.4355 327.192V331.13H46.9573V342.87H40.4355V346.808L52.1747 352V322Z" fill="#EC664B"/>
<rect width="16.9565" height="6.52174" transform="matrix(-1 0 0 1 58.6963 333.739)" fill="white"/>
<path d="M33.9141 104L0.00101781 119L33.9141 134V104Z" fill="white"/>
<path d="M52.1747 104L40.4355 109.192V113.13H46.9573V124.87H40.4355V128.808L52.1747 134V104Z" fill="#18FFCB"/>
<rect width="16.9565" height="6.52174" transform="matrix(-1 0 0 1 58.6963 115.739)" fill="white"/>
<path d="M33.9141 414L0.00101781 429L33.9141 444V414Z" fill="white"/>
<path d="M52.1747 414L40.4355 419.192V423.13H46.9573V434.87H40.4355V438.808L52.1747 444V414Z" fill="#18FFCB"/>
<rect width="16.9565" height="6.52174" transform="matrix(-1 0 0 1 58.6963 425.739)" fill="white"/>
<path d="M33.9141 595L0.00101781 610L33.9141 625V595Z" fill="white"/>
<path d="M52.1747 595L40.4355 600.192V604.13H46.9573V615.87H40.4355V619.808L52.1747 625V595Z" fill="#18FFCB"/>
<rect width="16.9565" height="6.52174" transform="matrix(-1 0 0 1 58.6963 606.739)" fill="white"/>
<path d="M33.9131 779L4.12464e-05 794L33.9131 809V779Z" fill="white"/>
<path d="M52.1737 779L40.4346 784.192V788.13H46.9563V799.87H40.4346V803.808L52.1737 809V779Z" fill="#18FFCB"/>
<rect width="16.9565" height="6.52174" transform="matrix(-1 0 0 1 58.6953 790.739)" fill="white"/>
<path d="M33.9141 234L0.00101781 249L33.9141 264V234Z" fill="white"/>
<path d="M52.1747 234L40.4355 239.192V243.13H46.9573V254.87H40.4355V258.808L52.1747 264V234Z" fill="#18FFCB"/>
<rect width="16.9565" height="6.52174" transform="matrix(-1 0 0 1 58.6963 245.739)" fill="white"/>
<path d="M33.9141 468L0.00101781 483L33.9141 498V468Z" fill="white"/>
<path d="M52.1747 468L40.4355 473.192V477.13H46.9573V488.87H40.4355V492.808L52.1747 498V468Z" fill="#18FFCB"/>
<rect width="16.9565" height="6.52174" transform="matrix(-1 0 0 1 58.6963 479.739)" fill="white"/>
<path d="M33.9141 650L0.00101781 665L33.9141 680V650Z" fill="white"/>
<path d="M52.1747 650L40.4355 655.192V659.13H46.9573V670.87H40.4355V674.808L52.1747 680V650Z" fill="#18FFCB"/>
<rect width="16.9565" height="6.52174" transform="matrix(-1 0 0 1 58.6963 661.739)" fill="white"/>
<path d="M33.9141 836L0.00101781 851L33.9141 866V836Z" fill="white"/>
<path d="M52.1747 836L40.4355 841.192V845.13H46.9573V856.87H40.4355V860.808L52.1747 866V836Z" fill="#18FFCB"/>
<rect width="16.9565" height="6.52174" transform="matrix(-1 0 0 1 58.6963 847.739)" fill="white"/>
<path d="M86.4775 51L120.391 66L86.4775 81V51Z" fill="white"/>
<path d="M68.2169 51L79.9561 56.1923V60.1304H73.4343V71.8696H79.9561V75.8077L68.2169 81V51Z" fill="#EC664B"/>
<rect x="61.6953" y="62.7393" width="16.9565" height="6.52174" fill="white"/>

    <path d="M86.4785 289L120.392 304L86.4785 319V289Z" fill="white"/>
<path d="M68.2179 289L79.957 294.192V298.13H73.4353V309.87H79.957V313.808L68.2179 319V289Z" fill="#EC664B"/>
<rect x="61.6963" y="300.739" width="16.9565" height="6.52174" fill="white"/>
<path d="M86.4785 143L120.392 158L86.4785 173V143Z" fill="white"/>
<path d="M68.2179 143L79.957 148.192V152.13H73.4353V163.87H79.957V167.808L68.2179 173V143Z" fill="#18FFCB"/>
<rect x="61.6963" y="154.739" width="16.9565" height="6.52174" fill="white"/>
<path d="M86.4785 198L120.392 213L86.4785 228V198Z" fill="white"/>
<path d="M68.2179 198L79.957 203.192V207.13H73.4353V218.87H79.957V222.808L68.2179 228V198Z" fill="#18FFCB"/>
<rect x="61.6963" y="209.739" width="16.9565" height="6.52174" fill="white"/>
<path d="M86.4785 380L120.392 395L86.4785 410V380Z" fill="white"/>
<path d="M68.2179 380L79.957 385.192V389.13H73.4353V400.87H79.957V404.808L68.2179 410V380Z" fill="#18FFCB"/>
<rect x="61.6963" y="391.739" width="16.9565" height="6.52174" fill="white"/>
<path d="M86.4785 561L120.392 576L86.4785 591V561Z" fill="white"/>
<path d="M68.2179 561L79.957 566.192V570.13H73.4353V581.87H79.957V585.808L68.2179 591V561Z" fill="#18FFCB"/>
<rect x="61.6963" y="572.739" width="16.9565" height="6.52174" fill="white"/>
<path d="M86.4785 745L120.392 760L86.4785 775V745Z" fill="white"/>
<path d="M68.2179 745L79.957 750.192V754.13H73.4353V765.87H79.957V769.808L68.2179 775V745Z" fill="#18FFCB"/>
<rect x="61.6963" y="756.739" width="16.9565" height="6.52174" fill="white"/>
<path d="M86.4775 506L120.391 521L86.4775 536V506Z" fill="white"/>
<path d="M68.2169 506L79.9561 511.192V515.13H73.4343V526.87H79.9561V530.808L68.2169 536V506Z" fill="#18FFCB"/>
<rect x="61.6953" y="517.739" width="16.9565" height="6.52174" fill="white"/>
<path d="M86.4785 688L120.392 703L86.4785 718V688Z" fill="white"/>
<path d="M68.2179 688L79.957 693.192V697.13H73.4353V708.87H79.957V712.808L68.2179 718V688Z" fill="#18FFCB"/>
<rect x="61.6963" y="699.739" width="16.9565" height="6.52174" fill="white"/>
<path d="M86.4785 874L120.392 889L86.4785 904V874Z" fill="white"/>
<path d="M68.2179 874L79.957 879.192V883.13H73.4353V894.87H79.957V898.808L68.2179 904V874Z" fill="#18FFCB"/>
<rect x="61.6963" y="885.739" width="16.9565" height="6.52174" fill="white"/>
</svg>
