<svg width="15" height="23" viewBox="0 0 15 23" fill="none" xmlns="http://www.w3.org/2000/svg">
<path fill-rule="evenodd" clip-rule="evenodd" d="M14.9487 0.135254H0V1.80599H2.19824V6.2467C2.19824 8.55762 3.6717 10.5244 5.73038 11.2588C3.6717 11.9932 2.19824 13.96 2.19824 16.2709V19.8322V20.7118H0V22.3825H14.9487V20.7118H12.8382V19.8322V16.2709C12.8382 13.96 11.3648 11.9932 9.30608 11.2588C11.3648 10.5244 12.8382 8.55762 12.8382 6.2467V1.80599H14.9487V0.135254ZM3.78105 16.2709V19.8322H11.2554V16.2709C11.2554 14.2069 9.58222 12.5337 7.51823 12.5337C5.45424 12.5337 3.78105 14.2069 3.78105 16.2709Z" fill="white"/>
</svg>
